<svg width="393" height="260" viewBox="0 0 393 260" fill="none" xmlns="http://www.w3.org/2000/svg">
<path d="M1.84457 137.544C1.61995 137.817 1.43031 138.048 1.27628 138.237C1.43235 138.436 1.62583 138.681 1.85603 138.971C2.56107 139.858 3.61057 141.161 4.98501 142.82C7.73397 146.139 11.7824 150.884 16.9741 156.579C27.3587 167.97 42.3115 183.157 60.5838 198.342C97.1633 228.74 146.888 258.996 199.814 258.996C252.732 258.996 300.797 228.747 335.713 198.357C353.155 183.175 367.279 167.991 377.041 156.601C381.922 150.908 385.711 146.164 388.279 142.846C389.563 141.187 390.541 139.885 391.198 138.998C391.422 138.695 391.609 138.44 391.758 138.237C391.611 138.043 391.428 137.803 391.208 137.517C390.552 136.664 389.574 135.409 388.29 133.811C385.723 130.614 381.934 126.044 377.053 120.559C367.291 109.587 353.169 94.958 335.727 80.3316C300.814 51.0543 252.745 21.9052 199.814 21.9052C146.876 21.9052 97.1459 51.0611 60.5697 80.346C42.2978 94.9755 27.3455 109.607 16.9614 120.582C11.77 126.068 7.72188 130.639 4.97318 133.836C3.59886 135.435 2.54949 136.69 1.84457 137.544Z" stroke="white" stroke-width="2"/>
<line y1="-1.5" x2="34.3065" y2="-1.5" transform="matrix(-0.670427 -0.741975 -0.801247 0.598334 98 54.543)" stroke="white" stroke-width="3"/>
<circle cx="197" cy="139.996" r="83.5" stroke="#E7E7E7" stroke-width="3"/>
<line y1="-1.5" x2="20.9091" y2="-1.5" transform="matrix(0 -1 -1 0 204 20.9102)" stroke="white" stroke-width="3"/>
<line y1="-1.5" x2="37.0848" y2="-1.5" transform="matrix(0.620201 -0.784443 -0.837137 -0.546993 294 50)" stroke="white" stroke-width="3"/>
</svg>
