<svg width="35" height="35" viewBox="0 0 35 35" fill="none" xmlns="http://www.w3.org/2000/svg">
<path d="M24.607 12.1216C24.4552 11.7283 24.2226 11.3712 23.9244 11.0732C23.6261 10.7753 23.2687 10.5431 22.8753 10.3917C22.3335 10.191 21.7613 10.085 21.1836 10.0781C20.2229 10.0344 19.9349 10.0234 17.5013 10.0234C15.0677 10.0234 14.7797 10.0344 13.819 10.0781C13.2407 10.0847 12.6679 10.1908 12.1255 10.3917C11.7322 10.5435 11.3751 10.7761 11.0771 11.0743C10.7792 11.3726 10.547 11.73 10.3956 12.1234C10.1949 12.6652 10.0889 13.2374 10.082 13.8151C10.0383 14.7758 10.0273 15.0638 10.0273 17.4974C10.0273 19.931 10.0383 20.219 10.082 21.1797C10.0886 21.758 10.1947 22.3308 10.3956 22.8732C10.5474 23.2665 10.78 23.6236 11.0782 23.9216C11.3765 24.2195 11.7339 24.4517 12.1273 24.6031C12.6691 24.8038 13.2413 24.9098 13.819 24.9167C14.7797 24.9604 15.0677 24.9714 17.5013 24.9714C19.9349 24.9714 20.2229 24.9604 21.1836 24.9167C21.7619 24.91 22.3347 24.804 22.8771 24.6031C23.2704 24.4513 23.6275 24.2187 23.9255 23.9204C24.2234 23.6222 24.4556 23.2648 24.607 22.8714C24.8077 22.3296 24.9137 21.7574 24.9206 21.1797C24.9643 20.219 24.9753 19.931 24.9753 17.4974C24.9753 15.0638 24.9643 14.7758 24.9206 13.8151C24.914 13.2368 24.8079 12.664 24.607 12.1216ZM17.5013 22.1786C16.5754 22.1786 15.6704 21.9041 14.9005 21.3897C14.1307 20.8753 13.5307 20.1442 13.1764 19.2888C12.8221 18.4334 12.7294 17.4922 12.91 16.5841C13.0906 15.6761 13.5365 14.8419 14.1912 14.1873C14.8458 13.5326 15.68 13.0867 16.588 12.9061C17.4961 12.7255 18.4374 12.8182 19.2927 13.1725C20.1481 13.5268 20.8792 14.1268 21.3936 14.8966C21.908 15.6665 22.1825 16.5715 22.1825 17.4974C22.1825 18.7389 21.6893 19.9296 20.8114 20.8075C19.9335 21.6854 18.7428 22.1786 17.5013 22.1786ZM22.3667 13.7258C22.1503 13.7258 21.9389 13.6616 21.759 13.5415C21.5791 13.4213 21.439 13.2504 21.3562 13.0506C21.2734 12.8507 21.2517 12.6308 21.2939 12.4187C21.3361 12.2065 21.4403 12.0116 21.5933 11.8586C21.7462 11.7057 21.9411 11.6015 22.1533 11.5593C22.3655 11.5171 22.5854 11.5388 22.7852 11.6215C22.9851 11.7043 23.1559 11.8445 23.2761 12.0244C23.3963 12.2042 23.4604 12.4157 23.4604 12.632C23.4604 12.9221 23.3452 13.2003 23.1401 13.4054C22.9349 13.6105 22.6567 13.7258 22.3667 13.7258Z" fill="#ED111D"/>
<path d="M17.4997 20.5346C19.178 20.5346 20.5385 19.1741 20.5385 17.4958C20.5385 15.8175 19.178 14.457 17.4997 14.457C15.8215 14.457 14.4609 15.8175 14.4609 17.4958C14.4609 19.1741 15.8215 20.5346 17.4997 20.5346Z" fill="#ED111D"/>
<path d="M17.5 0C14.0388 0 10.6554 1.02636 7.77753 2.94928C4.89967 4.87221 2.65665 7.60533 1.33212 10.803C0.00758244 14.0007 -0.338976 17.5194 0.336265 20.9141C1.01151 24.3087 2.67822 27.4269 5.12564 29.8744C7.57306 32.3218 10.6913 33.9885 14.0859 34.6637C17.4806 35.339 20.9993 34.9924 24.197 33.6679C27.3947 32.3434 30.1278 30.1003 32.0507 27.2225C33.9736 24.3446 35 20.9612 35 17.5C35 15.2019 34.5473 12.9262 33.6679 10.803C32.7884 8.67984 31.4994 6.75065 29.8744 5.12563C28.2493 3.50061 26.3202 2.21157 24.197 1.33211C22.0738 0.452651 19.7981 0 17.5 0ZM26.5599 21.2589C26.5443 22.0146 26.4006 22.7623 26.1352 23.47C25.9011 24.0754 25.5431 24.6252 25.0841 25.0841C24.6252 25.543 24.0754 25.901 23.4701 26.1352C22.7623 26.4006 22.0146 26.5443 21.2589 26.5599C20.2854 26.6036 19.9755 26.6146 17.5 26.6146C15.0245 26.6146 14.7146 26.6036 13.7412 26.5599C12.9854 26.5443 12.2377 26.4006 11.53 26.1352C10.9246 25.901 10.3748 25.543 9.9159 25.0841C9.45695 24.6252 9.09896 24.0754 8.86485 23.47C8.59936 22.7623 8.45575 22.0146 8.44011 21.2589C8.39636 20.2854 8.38542 19.9755 8.38542 17.5C8.38542 15.0245 8.39636 14.7146 8.44011 13.7411C8.45575 12.9854 8.59936 12.2377 8.86485 11.5299C9.09896 10.9246 9.45695 10.3748 9.9159 9.91589C10.3748 9.45695 10.9246 9.09895 11.53 8.86484C12.2377 8.59935 12.9854 8.45574 13.7412 8.4401C14.7146 8.39635 15.0245 8.38542 17.5 8.38542C19.9755 8.38542 20.2854 8.39635 21.2589 8.4401C22.0146 8.45574 22.7623 8.59935 23.4701 8.86484C24.0754 9.09895 24.6252 9.45695 25.0841 9.91589C25.5431 10.3748 25.9011 10.9246 26.1352 11.5299C26.4006 12.2377 26.5443 12.9854 26.5599 13.7411C26.6036 14.7146 26.6146 15.0245 26.6146 17.5C26.6146 19.9755 26.6036 20.2854 26.5599 21.2589Z" fill="#ED111D"/>
</svg>
