<svg width="36" height="49" viewBox="0 0 36 49" fill="none" xmlns="http://www.w3.org/2000/svg">
<path d="M10.9812 42.6395L25.1305 42.6452M23.2791 42.6452C23.2791 38.4855 25.3137 34.6644 28.5672 32.0719C32.7298 28.7553 35.2899 23.514 34.9036 17.7012C34.3409 9.24346 27.3301 2.38149 18.8628 1.98756C9.16983 1.53639 1.16992 9.26159 1.16992 18.8544C1.16992 24.2732 3.72528 29.1016 7.69804 32.193C10.9268 34.7054 12.8326 38.5494 12.8326 42.6395L23.2791 42.6452V42.6452Z" stroke="black" stroke-width="2" stroke-miterlimit="10" stroke-linecap="round" stroke-linejoin="round"/>
<path d="M10.9941 20.1935L15.772 24.9713L26.2433 14.5M23.1671 42.6423C23.1671 43.9977 22.6287 45.2977 21.6702 46.2561C20.7118 47.2145 19.4119 47.753 18.0564 47.753C16.701 47.753 15.401 47.2145 14.4426 46.2561C13.4842 45.2977 12.9457 43.9977 12.9457 42.6423" stroke="black" stroke-width="2" stroke-miterlimit="10" stroke-linecap="round" stroke-linejoin="round"/>
</svg>
