<svg width="60" height="60" viewBox="0 0 60 60" fill="none" xmlns="http://www.w3.org/2000/svg">
<circle cx="30" cy="30" r="30" fill="black" fill-opacity="0.7"/>
<path d="M43.5 44.9836C43.3659 45.0055 43.2291 45.0055 43.095 44.9836L34.98 42.7352C33.3713 43.2516 31.6896 43.5047 30 43.4847C26.1231 43.5773 22.3675 42.1306 19.5559 39.4615C16.7443 36.7923 15.1061 33.1183 15 29.2444C15.1061 25.3705 16.7443 21.6965 19.5559 19.0274C22.3675 16.3582 26.1231 14.9115 30 15.0042C33.8769 14.9115 37.6325 16.3582 40.4441 19.0274C43.2557 21.6965 44.8939 25.3705 45 29.2444C44.9971 32.0144 44.1494 34.7178 42.57 36.9941L44.895 42.99C44.9861 43.2425 45.0078 43.5148 44.9576 43.7784C44.9075 44.0421 44.7874 44.2875 44.61 44.489C44.4698 44.6443 44.2985 44.7685 44.1074 44.8537C43.9162 44.9389 43.7093 44.9831 43.5 44.9836ZM34.92 39.6023C35.0546 39.5876 35.1904 39.5876 35.325 39.6023L41.01 41.1912L39.51 37.2639C39.4088 37.0179 39.3749 36.7494 39.4118 36.486C39.4487 36.2226 39.5551 35.9737 39.72 35.765C41.1812 33.9035 41.9831 31.6102 42 29.2444C41.8943 26.1655 40.5722 23.2539 38.3232 21.1469C36.0742 19.0399 33.0814 17.9091 30 18.0021C26.9186 17.9091 23.9258 19.0399 21.6768 21.1469C19.4278 23.2539 18.1057 26.1655 18 29.2444C18.1057 32.3233 19.4278 35.2349 21.6768 37.3419C23.9258 39.449 26.9186 40.5797 30 40.4867C31.5054 40.4845 32.9985 40.2155 34.41 39.6923C34.5735 39.633 34.7461 39.6025 34.92 39.6023Z" fill="white"/>
</svg>
