<svg width="28" height="28" viewBox="0 0 28 28" fill="none" xmlns="http://www.w3.org/2000/svg">
<path fill-rule="evenodd" clip-rule="evenodd" d="M27.4968 24.2588C26.6325 26.8851 23.2463 28.1949 20.8271 27.9765C17.5231 27.6779 13.9279 25.9255 11.1988 23.9954C7.18728 21.1581 3.42965 16.7693 1.24003 12.1121C-0.307447 8.82125 -0.654653 4.77518 1.64697 1.77552C2.49817 0.666755 3.42031 0.074585 4.80165 0.0055202C6.7206 -0.0878106 6.98941 1.00995 7.64835 2.71977C8.13929 3.9984 8.79449 5.3027 9.16036 6.628C9.84543 9.10127 7.45048 9.20464 7.14807 11.2262C6.96141 12.5011 8.50515 14.2108 9.20329 15.1198C10.549 16.8903 12.1971 18.4085 14.0716 19.605C15.1356 20.2751 16.8492 21.4827 18.0663 20.8163C19.9404 19.7897 19.765 16.6296 22.3839 17.6992C23.741 18.2517 25.0552 19.0491 26.3506 19.7472C28.3536 20.8242 28.2602 21.9404 27.4968 24.2588C28.068 22.5266 26.9256 25.991 27.4968 24.2588Z" fill="#ED111D"/>
</svg>
