<svg width="350" height="167" viewBox="0 0 350 167" fill="none" xmlns="http://www.w3.org/2000/svg">
<path d="M101.024 25.7461C101.024 24.5742 100.43 23.6302 99.2422 22.9141C98.0703 22.1979 96.6299 21.6038 94.9209 21.1318C93.2282 20.6436 91.5355 20.0739 89.8428 19.4229C88.1663 18.7718 86.734 17.6976 85.5459 16.2002C84.3577 14.7028 83.7637 12.8066 83.7637 10.5117C83.7637 7.67969 84.8949 5.2627 87.1572 3.26074C89.4359 1.25879 92.39 0.257812 96.0195 0.257812C97.4518 0.257812 98.8353 0.428711 100.17 0.770508C101.505 1.09603 102.595 1.48665 103.441 1.94238C104.304 2.38184 105.053 2.83757 105.688 3.30957C106.339 3.7653 106.802 4.16406 107.079 4.50586L107.519 4.99414L103.026 9.75488C102.831 9.52702 102.554 9.25033 102.196 8.9248C101.854 8.58301 101.122 8.13542 99.999 7.58203C98.876 7.02865 97.7204 6.75195 96.5322 6.75195C95.0999 6.75195 93.9443 7.11816 93.0654 7.85059C92.2028 8.58301 91.7715 9.47005 91.7715 10.5117C91.7715 11.6836 92.3574 12.6276 93.5293 13.3438C94.7174 14.0436 96.1497 14.6377 97.8262 15.126C99.5189 15.6143 101.212 16.1839 102.904 16.835C104.613 17.486 106.062 18.5602 107.25 20.0576C108.438 21.555 109.032 23.4512 109.032 25.7461C109.032 28.985 107.852 31.6299 105.492 33.6807C103.148 35.7314 99.9095 36.7568 95.7754 36.7568C94.1478 36.7568 92.569 36.5534 91.0391 36.1465C89.5254 35.7559 88.2721 35.2839 87.2793 34.7305C86.3027 34.1771 85.4401 33.6156 84.6914 33.0459C83.9427 32.4762 83.4056 31.9961 83.0801 31.6055L82.5186 30.9951L87.0352 26.5029C87.263 26.7633 87.5804 27.1051 87.9873 27.5283C88.4105 27.9352 89.3382 28.4886 90.7705 29.1885C92.2028 29.8883 93.7002 30.2383 95.2627 30.2383C97.0693 30.2383 98.4772 29.8151 99.4863 28.9688C100.512 28.1224 101.024 27.0482 101.024 25.7461ZM134.496 16.249L146.605 0.990234H153.246V36H145.751V12.6602L134.496 26.9912L123.266 12.7578V36H115.746V0.990234H122.509L134.496 16.249ZM180.248 21.2539L176 9.75488L171.728 21.2539H180.248ZM182.738 27.748H169.237L166.234 36H158.227L171.996 0.990234H179.979L193.749 36H185.741L182.738 27.748ZM198.754 36V0.990234H214.257C217.724 0.990234 220.588 2.10514 222.851 4.33496C225.129 6.5485 226.269 9.2666 226.269 12.4893C226.269 13.889 226.049 15.1992 225.609 16.4199C225.17 17.6406 224.649 18.6253 224.047 19.374C223.461 20.1227 222.859 20.7656 222.24 21.3027C221.622 21.8398 221.093 22.2061 220.653 22.4014L220.019 22.7432L227.514 36H219.506L212.768 23.7441H206.273V36H198.754ZM218.773 12.4893C218.773 11.1221 218.318 9.99089 217.406 9.0957C216.511 8.20052 215.38 7.75293 214.013 7.75293H206.273V17.0059H214.013C215.38 17.0059 216.511 16.5745 217.406 15.7119C218.318 14.833 218.773 13.7588 218.773 12.4893ZM229.735 0.990234H257.226V7.75293H247.24V36H239.745V7.75293H229.735V0.990234ZM46.0439 94.2617H64.7939V101H38.5244V65.9902H64.2812V72.7529H46.0439V79.7598H60.2773V86.498H46.0439V94.2617ZM71.7764 65.9902H97.5332V72.7529H79.2959V80.4922H93.5293V87.2549H79.2959V101H71.7764V65.9902ZM104.003 65.9902H129.76V72.7529H111.522V80.4922H125.756V87.2549H111.522V101H104.003V65.9902ZM136.229 101V65.9902H143.749V101H136.229ZM169.75 65.2578C171.589 65.2578 173.339 65.502 174.999 65.9902C176.659 66.4622 178.018 67.04 179.076 67.7236C180.15 68.4072 181.094 69.0908 181.908 69.7744C182.738 70.458 183.332 71.0358 183.69 71.5078L184.252 72.2402L179.491 77.001C179.394 76.8708 179.255 76.6917 179.076 76.4639C178.913 76.2197 178.531 75.8128 177.929 75.2432C177.343 74.6735 176.7 74.1771 176 73.7539C175.3 73.3145 174.381 72.9157 173.241 72.5576C172.102 72.1833 170.938 71.9961 169.75 71.9961C166.479 71.9961 163.744 73.0947 161.547 75.292C159.35 77.4893 158.251 80.2236 158.251 83.4951C158.251 86.7666 159.35 89.501 161.547 91.6982C163.744 93.8955 166.479 94.9941 169.75 94.9941C171.02 94.9941 172.232 94.8232 173.388 94.4814C174.56 94.1234 175.528 93.7083 176.293 93.2363C177.058 92.748 177.733 92.2598 178.319 91.7715C178.905 91.2832 179.328 90.86 179.589 90.502L179.979 89.9893L184.496 94.75C184.366 94.9453 184.162 95.2057 183.886 95.5312C183.625 95.8405 183.031 96.402 182.104 97.2158C181.192 98.0133 180.207 98.7214 179.149 99.3398C178.108 99.9421 176.732 100.495 175.023 101C173.331 101.505 171.573 101.757 169.75 101.757C164.411 101.757 159.903 99.9746 156.225 96.4102C152.562 92.8294 150.731 88.5244 150.731 83.4951C150.731 78.4658 152.562 74.1689 156.225 70.6045C159.903 67.04 164.411 65.2578 169.75 65.2578ZM190.478 101V65.9902H197.997V101H190.478ZM214.501 94.2617H233.251V101H206.981V65.9902H232.738V72.7529H214.501V79.7598H228.734V86.498H214.501V94.2617ZM263.988 65.9902H271.483V101H264.989L247.753 78.7588V101H240.233V65.9902H246.752L263.988 88.2559V65.9902ZM276.977 65.9902H304.467V72.7529H294.481V101H286.986V72.7529H276.977V65.9902ZM23.4121 130.99H30.3945L37.6455 154.989L44.8965 130.99H52.9043L41.4053 166H34.3984L26.9033 142.489L19.4082 166H12.4014L0.902344 130.99H8.91016L16.1611 154.989L23.4121 130.99ZM66.4053 140.341C64.2243 142.554 63.1338 145.281 63.1338 148.52C63.1338 151.742 64.2243 154.46 66.4053 156.674C68.5863 158.887 71.2393 159.994 74.3643 159.994C77.5055 159.994 80.1667 158.887 82.3477 156.674C84.5286 154.46 85.6191 151.742 85.6191 148.52C85.6191 145.281 84.5286 142.554 82.3477 140.341C80.1667 138.111 77.5055 136.996 74.3643 136.996C71.2393 136.996 68.5863 138.111 66.4053 140.341ZM60.8633 161.41C57.2012 157.829 55.3701 153.524 55.3701 148.495C55.3701 143.466 57.2012 139.169 60.8633 135.604C64.5417 132.04 69.042 130.258 74.3643 130.258C79.7028 130.258 84.2031 132.04 87.8652 135.604C91.5436 139.169 93.3828 143.466 93.3828 148.495C93.3828 153.524 91.5436 157.829 87.8652 161.41C84.2031 164.975 79.7028 166.757 74.3643 166.757C69.042 166.757 64.5417 164.975 60.8633 161.41ZM100.39 166V130.99H115.893C119.359 130.99 122.224 132.105 124.486 134.335C126.765 136.549 127.904 139.267 127.904 142.489C127.904 143.889 127.685 145.199 127.245 146.42C126.806 147.641 126.285 148.625 125.683 149.374C125.097 150.123 124.494 150.766 123.876 151.303C123.257 151.84 122.729 152.206 122.289 152.401L121.654 152.743L129.149 166H121.142L114.403 153.744H107.909V166H100.39ZM120.409 142.489C120.409 141.122 119.953 139.991 119.042 139.096C118.147 138.201 117.016 137.753 115.648 137.753H107.909V147.006H115.648C117.016 147.006 118.147 146.575 119.042 145.712C119.953 144.833 120.409 143.759 120.409 142.489ZM159.643 166H135.888V130.99H143.407V159.262H159.643V166ZM165.38 130.99H178.393C183.487 130.99 187.759 132.683 191.21 136.068C194.66 139.454 196.386 143.596 196.386 148.495C196.386 153.394 194.66 157.536 191.21 160.922C187.759 164.307 183.487 166 178.393 166H165.38V130.99ZM178.393 137.753H172.899V159.262H178.393C181.29 159.262 183.764 158.22 185.814 156.137C187.865 154.053 188.891 151.514 188.891 148.52C188.891 145.508 187.89 142.961 185.888 140.878C183.886 138.795 181.387 137.753 178.393 137.753ZM221.361 130.99H228.344L235.595 154.989L242.846 130.99H250.854L239.354 166H232.348L224.853 142.489L217.357 166H210.351L198.852 130.99H206.859L214.11 154.989L221.361 130.99ZM256.347 166V130.99H263.866V166H256.347ZM272.851 130.99H285.863C290.958 130.99 295.23 132.683 298.681 136.068C302.131 139.454 303.856 143.596 303.856 148.495C303.856 153.394 302.131 157.536 298.681 160.922C295.23 164.307 290.958 166 285.863 166H272.851V130.99ZM285.863 137.753H280.37V159.262H285.863C288.76 159.262 291.234 158.22 293.285 156.137C295.336 154.053 296.361 151.514 296.361 148.52C296.361 145.508 295.36 142.961 293.358 140.878C291.356 138.795 288.858 137.753 285.863 137.753ZM318.358 159.262H337.108V166H310.839V130.99H336.596V137.753H318.358V144.76H332.592V151.498H318.358V159.262Z" fill="black" style="mix-blend-mode:difference"/>
<path d="M261.645 35.3652C260.863 34.6165 260.473 33.7458 260.473 32.7529C260.473 31.7438 260.863 30.8649 261.645 30.1162C262.426 29.3675 263.37 28.9932 264.477 28.9932C265.583 28.9932 266.527 29.3675 267.309 30.1162C268.09 30.8649 268.48 31.7438 268.48 32.7529C268.48 33.7458 268.09 34.6165 267.309 35.3652C266.527 36.1139 265.583 36.4883 264.477 36.4883C263.37 36.4883 262.426 36.1139 261.645 35.3652ZM308.886 100.365C308.104 99.6165 307.714 98.7458 307.714 97.7529C307.714 96.7438 308.104 95.8649 308.886 95.1162C309.667 94.3675 310.611 93.9932 311.718 93.9932C312.825 93.9932 313.769 94.3675 314.55 95.1162C315.331 95.8649 315.722 96.7438 315.722 97.7529C315.722 98.7458 315.331 99.6165 314.55 100.365C313.769 101.114 312.825 101.488 311.718 101.488C310.611 101.488 309.667 101.114 308.886 100.365ZM343.017 165.365C342.235 164.617 341.845 163.746 341.845 162.753C341.845 161.744 342.235 160.865 343.017 160.116C343.798 159.368 344.742 158.993 345.849 158.993C346.955 158.993 347.899 159.368 348.681 160.116C349.462 160.865 349.853 161.744 349.853 162.753C349.853 163.746 349.462 164.617 348.681 165.365C347.899 166.114 346.955 166.488 345.849 166.488C344.742 166.488 343.798 166.114 343.017 165.365Z" fill="#ED111D"/>
</svg>
