<svg width="46" height="46" viewBox="0 0 46 46" fill="none" xmlns="http://www.w3.org/2000/svg">
<path d="M23 0C10.3079 0 3.5385e-05 10.3079 3.64398e-10 23C-7.07689e-05 35.6921 10.3079 46 23 46C35.6921 46 46.0001 35.6921 46 23C46 10.3079 35.6921 0 23 0ZM23 1.76923C34.7359 1.76923 44.2307 11.264 44.2308 23C44.2308 34.736 34.736 44.2308 23 44.2308C11.264 44.2308 1.76916 34.736 1.76923 23C1.76925 11.264 11.2641 1.76923 23 1.76923ZM8.84615 8.84615V10.6154C14.1423 10.6154 19.0455 12.1985 23.1831 14.8691C23.0793 15.2007 23.0069 15.5482 23.0069 15.9127C23.0069 17.8566 24.6016 19.4512 26.5454 19.4512C27.1416 19.4512 27.6956 19.2865 28.1902 19.0227C32.6395 23.7674 35.3846 30.1289 35.3846 37.1538H37.1538C37.1538 29.6852 34.2294 22.9083 29.4964 17.8478C29.8646 17.2898 30.0838 16.6262 30.0838 15.9127C30.0839 13.9689 28.4892 12.3742 26.5454 12.3742C25.6023 12.3742 24.7457 12.7541 24.1092 13.3625C19.6999 10.5227 14.4763 8.84615 8.84615 8.84615ZM8.87725 19.4304V21.1997C17.6818 21.1995 24.8004 28.3182 24.8003 37.1227H26.5696C26.5696 27.3619 18.638 19.4303 8.87725 19.4304Z" fill="black"/>
</svg>
