<svg width="35" height="35" viewBox="0 0 35 35" fill="none" xmlns="http://www.w3.org/2000/svg">
<path d="M17.5 0C7.83563 0 0 7.83563 0 17.5C0 27.1644 7.83563 35 17.5 35C27.1644 35 35 27.1644 35 17.5C35 7.83563 27.1644 0 17.5 0ZM26.0954 11.989L23.2225 25.5223C23.011 26.4819 22.4394 26.7152 21.6417 26.2631L17.2667 23.0402L15.1579 25.0731C14.9538 25.3356 14.6373 25.5033 14.2829 25.5033C14.28 25.5033 14.2785 25.5033 14.2756 25.5033L14.5863 21.0496L22.6946 13.7258C23.0446 13.4152 22.6158 13.2388 22.1506 13.5494L12.1333 19.8581L7.81667 18.5106C6.88333 18.2146 6.85708 17.5773 8.01354 17.1194L24.8806 10.6181C25.6652 10.3323 26.3477 10.8048 26.094 11.9904L26.0954 11.989Z" fill="#ED111D"/>
</svg>
