<svg width="35" height="35" viewBox="0 0 35 35" fill="none" xmlns="http://www.w3.org/2000/svg">
<path d="M17.5 35C27.165 35 35 27.165 35 17.5C35 7.83502 27.165 0 17.5 0C7.83502 0 0 7.83502 0 17.5C0 27.165 7.83502 35 17.5 35Z" fill="#ED111D"/>
<path d="M28.2168 12.5827C27.4669 12.9152 26.6602 13.1401 25.8142 13.2406C26.678 12.723 27.3409 11.9042 27.6537 10.9268C26.8455 11.4063 25.9499 11.7541 24.9975 11.9416C24.2344 11.129 23.1473 10.6211 21.9434 10.6211C19.6337 10.6211 17.7604 12.4944 17.7604 14.8041C17.7604 15.1319 17.7976 15.4511 17.8693 15.7574C14.3929 15.583 11.3105 13.9178 9.2472 11.3863C8.88721 12.004 8.6807 12.723 8.6807 13.4895C8.6807 14.9404 9.41971 16.2213 10.5415 16.9712C9.85614 16.9497 9.21071 16.7616 8.647 16.4475C8.64669 16.4652 8.64669 16.483 8.64669 16.5005C8.64669 18.5273 10.0892 20.2177 12.0024 20.6018C11.6517 20.6978 11.2815 20.7487 10.9006 20.7487C10.6304 20.7487 10.3687 20.7228 10.1135 20.6741C10.6457 22.3356 12.1902 23.545 14.021 23.579C12.5892 24.7011 10.7858 25.3697 8.82544 25.3697C8.48853 25.3697 8.15474 25.35 7.82812 25.311C9.67833 26.4983 11.8776 27.1905 14.2397 27.1905C21.9338 27.1905 26.1414 20.8167 26.1414 15.2886C26.1414 15.1073 26.1373 14.9267 26.1292 14.7476C26.9472 14.158 27.6562 13.4215 28.2168 12.5827Z" fill="#F1F2F2"/>
</svg>
