<svg width="340" height="141" viewBox="0 0 340 141" fill="none" xmlns="http://www.w3.org/2000/svg">
<path d="M75.9688 61.9961L72.0369 65.0849L75.9489 70.0645L79.8853 65.1043L75.9688 61.9961ZM124.406 0.960938V-4.03906H121.991L120.49 -2.14723L124.406 0.960938ZM150.969 0.960938H155.969V-4.03906H150.969V0.960938ZM150.969 141V146H155.969V141H150.969ZM120.988 141H115.988V146H120.988V141ZM120.988 47.6406H125.988V33.1787L117.056 44.5524L120.988 47.6406ZM75.9688 104.965L72.0435 108.062L75.9779 113.048L79.901 108.053L75.9688 104.965ZM31.0469 48.0312L34.9721 44.9341L26.0469 33.6223V48.0312H31.0469ZM31.0469 141V146H36.0469V141H31.0469ZM0.96875 141H-4.03125V146H0.96875V141ZM0.96875 0.960938V-4.03906H-4.03125V0.960938H0.96875ZM28.0195 0.960938L31.9513 -2.12789L30.4499 -4.03906H28.0195V0.960938ZM79.8853 65.1043L128.323 4.06911L120.49 -2.14723L72.0522 58.8879L79.8853 65.1043ZM124.406 5.96094H150.969V-4.03906H124.406V5.96094ZM145.969 0.960938V141H155.969V0.960938H145.969ZM150.969 136H120.988V146H150.969V136ZM125.988 141V47.6406H115.988V141H125.988ZM117.056 44.5524L72.0365 101.877L79.901 108.053L124.921 50.7288L117.056 44.5524ZM79.894 101.868L34.9721 44.9341L27.1216 51.1284L72.0435 108.062L79.894 101.868ZM26.0469 48.0312V141H36.0469V48.0312H26.0469ZM31.0469 136H0.96875V146H31.0469V136ZM5.96875 141V0.960938H-4.03125V141H5.96875ZM0.96875 5.96094H28.0195V-4.03906H0.96875V5.96094ZM24.0877 4.04977L72.0369 65.0849L79.9006 58.9073L31.9513 -2.12789L24.0877 4.04977ZM339.934 0.960938H344.934V-4.03906H339.934V0.960938ZM339.934 141V146H344.934V141H339.934ZM309.953 141H304.953V146H309.953V141ZM309.953 0.960938V-4.03906H304.953V0.960938H309.953ZM186.906 141H181.906V146H186.906V141ZM186.906 0.960938V-4.03906H181.906V0.960938H186.906ZM216.984 0.960938H221.984V-4.03906H216.984V0.960938ZM216.984 46.957H211.984V51.957H216.984V46.957ZM279.68 60.5312L276.22 64.1407L276.232 64.1528L276.245 64.1649L279.68 60.5312ZM279.68 127.523L276.245 123.89L276.239 123.896L276.233 123.902L279.68 127.523ZM216.984 114.047H211.984V119.047H216.984V114.047ZM257.902 108.285L261.378 111.879L261.379 111.878L257.902 108.285ZM257.902 79.8672L254.396 83.4318L254.426 83.4608L254.456 83.4893L257.902 79.8672ZM216.984 74.0078V69.0078H211.984V74.0078H216.984ZM334.934 0.960938V141H344.934V0.960938H334.934ZM339.934 136H309.953V146H339.934V136ZM314.953 141V0.960938H304.953V141H314.953ZM309.953 5.96094H339.934V-4.03906H309.953V5.96094ZM243.938 136H186.906V146H243.938V136ZM191.906 141V0.960938H181.906V141H191.906ZM186.906 5.96094H216.984V-4.03906H186.906V5.96094ZM211.984 0.960938V46.957H221.984V0.960938H211.984ZM216.984 51.957H243.938V41.957H216.984V51.957ZM243.938 51.957C257.177 51.957 267.807 56.0767 276.22 64.1407L283.14 56.9218C272.672 46.8869 259.474 41.957 243.938 41.957V51.957ZM276.245 64.1649C284.728 72.1832 288.938 82.0242 288.938 94.0273H298.938C298.938 79.3378 293.642 66.848 283.114 56.8976L276.245 64.1649ZM288.938 94.0273C288.938 106.031 284.728 115.871 276.245 123.89L283.114 131.157C293.642 121.207 298.938 108.717 298.938 94.0273H288.938ZM276.233 123.902C267.822 131.906 257.188 136 243.938 136V146C259.463 146 272.657 141.11 283.127 131.145L276.233 123.902ZM216.984 119.047H242.961V109.047H216.984V119.047ZM242.961 119.047C250.128 119.047 256.392 116.702 261.378 111.879L254.426 104.691C251.47 107.551 247.773 109.047 242.961 109.047V119.047ZM261.379 111.878C266.386 107.033 268.957 100.986 268.957 94.0273H258.957C258.957 98.2668 257.492 101.724 254.425 104.692L261.379 111.878ZM268.957 94.0273C268.957 87.0668 266.383 81.0352 261.349 76.2451L254.456 83.4893C257.495 86.3815 258.957 89.79 258.957 94.0273H268.957ZM261.409 76.3026C256.427 71.4028 250.153 69.0078 242.961 69.0078V79.0078C247.748 79.0078 251.435 80.519 254.396 83.4318L261.409 76.3026ZM242.961 69.0078H216.984V79.0078H242.961V69.0078ZM211.984 74.0078V114.047H221.984V74.0078H211.984Z" fill="black" style="mix-blend-mode:difference"/>
</svg>
